<?xml version="1.0" encoding="utf-8"?>
<svg xmlns="http://www.w3.org/2000/svg" viewBox="82.3098 0 215.3805 380" width="380px" height="380px">
  <g transform="matrix(1, 0, 0, 1, 16.40765380859375, 7.043688774108887)">
    <path d="M 130.889 339.284 C 133.739 334.324 132.059 327.984 127.109 325.114 C 112.799 316.804 87.709 297.174 95.559 264.684 C 106.539 219.224 163.399 155.214 204.609 158.894 C 239.619 162.024 176.029 290.174 143.369 340.164 C 139.249 346.474 145.679 354.354 152.659 351.524 C 174.639 342.624 208.439 322.374 236.179 277.154 C 281.409 203.444 297.109 126.174 262.399 114.914 C 225.969 103.104 146.819 133.344 99.579 192.304 C 54.279 248.854 49.649 306.714 116.939 343.274 C 121.889 345.964 128.079 344.154 130.879 339.274 L 130.889 339.284 Z" fill="#07487E" style="stroke-width: 1;"/>
    <path d="M 250.256 87.55 C 269.665 68.141 272.637 39.645 256.895 23.903 C 241.153 8.161 212.658 11.134 193.249 30.543 C 173.84 49.952 170.867 78.448 186.609 94.19 C 202.351 109.932 230.847 106.959 250.256 87.55 Z" fill="#F64F31" style="stroke-width: 1;"/>
  </g>
</svg>