<svg xmlns="http://www.w3.org/2000/svg" width="400" height="400"><path fill="#FCFCFC" d="m123.288-.275 5.566-.015c4.983-.013 9.967-.014 14.951-.012q6.283 0 12.567-.008 14.85-.016 29.699-.006c10.146.006 20.292-.006 30.438-.027q13.155-.027 26.31-.02c5.212.001 10.424-.001 15.636-.015C300.534-.482 338.8.01 371.363 30.297c12.748 13.069 20.747 28.722 24.824 46.39l.47 1.99c3.165 14.703 3.641 29.636 3.618 44.61q.007 2.783.015 5.567c.013 4.983.014 9.967.012 14.951q0 6.284.008 12.567.016 14.85.006 29.699c-.006 10.146.006 20.292.027 30.438q.026 13.155.02 26.31c-.001 5.212.001 10.424.015 15.636.104 42.079-.388 80.345-30.675 112.908-13.069 12.748-28.722 20.747-46.39 24.824l-1.99.47c-14.703 3.165-29.636 3.641-44.61 3.618q-2.784.007-5.567.015c-4.983.013-9.967.014-14.951.012q-6.283 0-12.567.008-14.85.016-29.699.006c-10.146-.006-20.292.006-30.438.027q-13.155.026-26.31.02c-5.212-.001-10.424.001-15.636.015-42.079.104-80.345-.388-112.908-30.675-12.748-13.069-20.747-28.722-24.825-46.39l-.469-1.99C.178 306.62-.298 291.686-.275 276.712q-.007-2.784-.015-5.567c-.013-4.983-.014-9.967-.012-14.951q0-6.283-.008-12.567-.016-14.85-.006-29.699c.006-10.146-.006-20.292-.027-30.438q-.027-13.155-.02-26.31c.001-5.212-.001-10.424-.015-15.636C-.482 99.466.01 61.2 30.297 28.637 43.366 15.889 59.019 7.89 76.687 3.812l1.99-.469C93.38.178 108.314-.298 123.288-.275"/><path fill="#0E4F83" d="m237.313 127.75 2.935-.062c9.427-.05 18.607 1.332 26.037 7.53 8.521 8.852 10.246 21.525 10.13 33.327C275.292 202.44 261.945 234.11 247 264h-33l-2 15-1 4-31 1-1 4 30 1c0 7 0 7-1 10l-28 1-1 6c1.775 1.775 4.378 1.235 6.785 1.316l3.545.127 3.732.12 3.745.13q4.596.16 9.193.307-.364 2.9-.732 5.799a231 231 0 0 0-.6 5.623C203.123 330.124 198.002 335.478 190 342l-1.868 1.54C178.73 351.18 168.763 357.467 158 363l-3.203 1.664c-4.987 2.44-9.135 4.376-14.797 3.336-2.437-1.625-2.437-1.625-4-4-1.124-6.341 2.401-10.671 5.625-15.812q1.8-2.955 3.59-5.915l1.89-3.11c5.54-9.247 10.703-18.718 15.895-28.163l1.378-2.501C181.888 276.535 200.406 240.134 207 204l.395-2.145c1.07-7.008 1.675-14.644-.583-21.417-2.201-2.962-3.328-4.131-6.812-5.438-17.31-2.074-34.083 6.69-47.43 16.95L150 194l-2.695 2.082C121.296 216.644 94.37 250.388 89 284c-1.706 15.26 1.42 27.325 10.988 39.582L102 326l1.543 1.887c4.37 4.818 9.813 8.156 15.303 11.562 6.024 3.816 6.024 3.816 7.154 7.551.574 4.43.303 6.472-1.937 10.375-2.891 3.046-5.598 3.428-9.671 3.768-4.165-.249-6.983-2.236-10.33-4.58l-2.098-1.397C81.902 341.632 65.101 324.4 60 300c-.497-2.758-.837-5.229-1-8l-.195-2.973C58.24 272.651 63.095 257.657 70 243l.906-1.924C83.77 214.338 105.408 189.808 129 172l1.916-1.459c30.489-23.096 67.344-42.586 106.397-42.791"/><path fill="#FEDA1B" d="M214 264q15.816-.034 31.631-.052 7.343-.007 14.687-.023 7.08-.016 14.16-.02 2.708-.003 5.415-.01 3.78-.01 7.558-.009l2.284-.01c5.15.01 5.15.01 6.265 1.124.072 2.02.084 4.042.063 6.063l-.028 3.347L296 277l1.772-.08c2.66-.103 5.318-.168 7.978-.233l2.79-.126c6.819-.124 6.819-.124 9.706 2.412L320 282a321 321 0 0 0 2.988 4.11q1.664 2.318 3.325 4.64c4.049 5.644 8.121 11.237 12.515 16.621 2.649 3.682 2.287 7.336 2.27 11.703l-.005 2.072c-.005 2.18-.018 4.361-.03 6.541q-.008 2.22-.014 4.44c-.01 3.624-.03 7.249-.049 10.873h-14l-1 5c-2.376 4.353-5.062 7.434-9.312 10-7.311 1.983-12.91 1.65-19.688-2-4.774-3.32-4.774-3.32-6-7q-9.047-.259-18.097-.385a496 496 0 0 1-6.154-.143 482 482 0 0 0-8.854-.156l-2.772-.11c-4.81-.094-4.81-.094-8.737 2.33-1.33 1.843-1.33 1.843-2.335 3.768-1.463 2.361-3.379 3.357-5.969 4.255-6.215 1.317-11.98 1.523-17.582-1.747-2.555-1.8-3.445-2.702-4.875-5.562-1.393-2.48-1.393-2.48-3.879-2.645q-2.68-.167-5.36-.324C204 348 204 348 201.376 346.437c-4.056-7.19-.06-17.469 1.625-24.937q.435-1.969.867-3.937 1.056-4.784 2.133-9.563c-.777.01-1.554.02-2.355.032-3.507.041-7.013.067-10.52.093l-3.707.05-3.535.02-3.27.032C180 308 180 308 178 306c.568-5.568.568-5.568 2-7 2.073-.088 4.148-.107 6.223-.098l3.818.01 4.022.026q2.016.008 4.033.013 4.952.018 9.904.049l1-10h-30l-1-4c2-2 2-2 5.073-2.227 1.288.01 2.576.02 3.904.032l2.076.008c2.19.011 4.381.037 6.572.062q2.226.016 4.453.027 5.46.035 10.922.098l.402-3.395.536-4.418.263-2.236c.381-3.118.803-5.962 1.799-8.951"/><path fill="#FA5436" d="M245.25 33.875 248 36l3 2.063c5.119 4.321 8.636 11.438 10 17.937.121 2.762.185 5.488.188 8.25l.037 2.2c.037 13.973-6.425 26.485-15.892 36.485C238.109 110.15 229.619 114.783 220 118l-1.98.684c-10.039 3-20.694 2.01-30.02-2.684-8.307-5.897-14.332-13.107-17-23-1.766-16.477 1.713-30.142 11.813-43.375 14.806-17.672 41.13-28.043 62.437-15.75"/><path fill="#FDF033" d="M320 284c4.723 4.381 8.401 9.367 12.188 14.563l1.904 2.576c4.676 6.377 7.17 9.901 7.103 18.033l-.008 2.068a986 986 0 0 1-.062 6.51q-.016 2.212-.027 4.426c-.02 3.608-.06 7.216-.098 10.824h-14l1-2h11l-1-31c-4.745.625-4.745.625-7.33 2.53-3.45 1.9-6.537 1.946-10.377 1.982l-2.198.054c-2.303.054-4.605.088-6.908.122q-2.35.05-4.7.103c-3.83.087-7.657.147-11.487.209v-27l8.188-.187 2.551-.083c4.725-.053 7.26.563 11.261 3.27h4v2l2-2-1.5-2.375C320 286 320 286 320 284"/><path fill="#FD795A" d="M245.25 33.875 248 36l1.59 1.191c3.303 2.577 5.576 5.038 7.41 8.809v2h-2l-1-3-3 3c-4.817-3.55-4.817-3.55-5.824-6.031-1.051-2.197-1.051-2.197-3.61-3.016-13.245-3.1-23.94-2.13-36.62 2.461C203 42 203 42 200 42v2c-1.68 1.402-1.68 1.402-3.875 2.938-2.8 1.961-4.186 3.153-6.125 6.062h-2l-.805 2.176c-1.606 3.794-3.77 7.133-5.953 10.617-1.405 2.075-1.405 2.075-1.242 4.207l-2 1c-.199 3.354-.382 6.708-.562 10.063l-.17 2.857c-.272 5.204-.228 9.954.732 15.08l-4-2-1 2c-4.17-10.374-3.344-24.109.742-34.367C181.972 47.406 194.265 36.926 212 30c10.962-2.916 23.44-1.785 33.25 3.875"/><path fill="#FAE348" d="M225 329h14l1 3 3 1 1 3h4c.09 3.845-.188 7.247-1 11l1.688-.027c5.791-.088 11.582-.149 17.373-.193q3.243-.03 6.487-.082c3.105-.048 6.21-.071 9.315-.089l2.936-.062 2.73-.001 2.402-.027c2.069.481 2.069.481 3.848 2.51L295 351l-1 2c-2-1-2-1-3-4q-9.047-.259-18.097-.385a496 496 0 0 1-6.154-.143 482 482 0 0 0-8.854-.156l-2.772-.11c-4.81-.094-4.81-.094-8.737 2.33-1.33 1.843-1.33 1.843-2.335 3.768-1.463 2.361-3.379 3.357-5.969 4.255-6.186 1.311-11.978 1.515-17.582-1.684-3.376-2.414-5.04-4.949-6.5-8.875h3l1 3 2 2 2 2c2.069.643 2.069.643 4 1l-1.5-2.375C223 351 223 351 223 349h-2c-2.42-4.285-2.881-8.16-2-13 2.438-2.937 2.438-2.937 5-5z"/><path fill="#3775A9" d="m236.875 129.813 2.895-.038c5.768-.011 10.7.571 16.23 2.225v1l-2.738-.016q-5.013-.025-10.024-.039-2.173-.008-4.345-.02a1691 1691 0 0 0-6.233-.023l-3.793-.016c-2.764-.215-2.764-.215-3.867 1.114q-3.5.061-7 0v2h-4v2c-3.54 2.124-6.95 2.465-11 3l-1 1c-1.558.296-3.122.562-4.687.813-3.498.657-5.296 1.175-8.313 3.187-4.098 2.732-8.189 3.277-13 4v2l-6 1v3l-1.715.332-2.222.48-2.215.458L162 158l-1 3c-1.568.955-3.147 1.895-4.766 2.762-3.635 2.014-7.091 4.307-10.586 6.554L143 172l-2.66 1.703c-2.673 1.481-4.332 1.555-7.34 1.297v2l-2.687 1.125c-2.951 1.67-4.03 2.52-6 5.063L122 186h-3l-.312 1.813c-1.374 4.371-4.852 6.023-8.688 8.187l-2 1c.556-3.647 1.791-5.02 4.625-7.312a85 85 0 0 0 7.535-6.946c4.203-4.242 8.862-7.756 13.653-11.304l2.54-1.92a161 161 0 0 1 15.476-10.235 94 94 0 0 0 5.671-3.658C160 154 160 154 162 154v-2l-2-1a3592 3592 0 0 1 11.813-5.75l3.333-1.633c19.02-9.2 19.02-9.2 24.854-7.617 2.24-.294 2.24-.294 4.555-.96l2.613-.68 2.707-.735c9.196-2.436 17.466-3.806 27-3.812"/><path fill="#2C618B" d="m105 198 2 1c-1.72 3.03-3.292 5.763-6 8h-2v2l-1.812 1.125c-2.648 2.27-3.14 4.482-4.284 7.695-1.472 3.549-3.674 6.51-5.904 9.618-3.29 4.735-5.83 8.887-7.29 14.519-.888 2.554-2.253 4.418-3.835 6.606-3.05 4.31-3.532 7.21-3.875 12.437-.937 3.438-.937 3.438-2 6l-2 1c-3.926 11.609-3.287 27.32 0 39l-2 1c-2.248-3.674-2.65-7.492-3.125-11.687l-.257-2.153c-.577-5.082-.8-10.042-.618-15.16l-1 17c-5.338-10.676-1.292-25.05 2-36 1.755-5.104 3.817-10.067 6-15l1 4 1.645-3.29L81 227h2l.672-2.566c1.594-4.12 3.798-6.986 6.578-10.371l1.498-1.86A716 716 0 0 1 96 207l1.953-2.395c2.215-2.656 4.15-4.674 7.047-6.605"/><path fill="#F1F1F1" d="m93 396 3.282.09c34.137.913 68.263 1.068 102.409 1.039q7.455-.006 14.91.001c31.143.026 62.271 0 93.399-1.13l-1 3c-9.521 1.22-19.007 1.141-28.586 1.13q-2.812.001-5.625.005-7.605.005-15.211 0c-5.32-.003-10.64 0-15.96 0q-13.4.003-26.8-.005-15.462-.007-30.926.002-13.305.007-26.61.003-7.933-.003-15.867.001-7.462.004-14.925-.005-2.729 0-5.457.002c-9.063.01-18.02-.029-27.033-1.133z"/><path fill="#FEF8DC" d="M296 288c13.835-1.524 13.835-1.524 17.675 1.18 3.428 3.499 5.855 7.617 8.325 11.82a350 350 0 0 0 2.266 3.305C326 307 326 307 326 309h-30z"/><path fill="#3777AD" d="M213 176c4.473 4.473 3.299 11.787 3.323 17.715-.08 6.418-.816 12.507-2.136 18.785l-.5 2.406c-.938 4.068-1.915 6.874-4.687 10.094-1.079 3.236-1.876 6.44-2.613 9.77-1.562 6.794-3.39 13.416-7.387 19.23l-3 1-.25 2.063c-.779 3.05-2.09 5.304-3.71 7.98-1.133 2.133-1.834 4.212-2.54 6.52-1.286 4.088-2.817 7.084-5.5 10.437l-3 1c1.654-5.546 3.74-10.695 6.246-15.906 3.574-7.557 6.75-15.232 9.754-23.031l.775-2.002C205.793 221.266 214.11 199.603 210 177l2 1z"/><path fill="#BCD4E6" d="M203.188 175.5 205 177l-2 1-2-1c-10.65-.968-21.574 2.167-31 7l-2.07.93-2.055.945-2.07.93c-2.19 1.45-2.657 2.884-3.805 5.195q-2.99.56-6 1l-2 3-2.375 1.375c-2.77 1.505-2.77 1.505-4.625 4.188-2 2.437-2 2.437-4.625 3.437-2.587.774-2.587.774-3.437 3.313-.31.886-.62 1.773-.938 2.687-3.376 4.792-3.376 4.792-7 6-2.643 2.332-3.872 3.617-5 7l-2.875 2.25c-3.444 2.716-4.464 5.705-6.125 9.75l-5 5a221 221 0 0 0-3 7l-3 3-.5 2.5c-.5 2.5-.5 2.5-1.935 3.928-2.592 2.604-3.436 6.105-4.627 9.51a1612 1612 0 0 1-1.536 4.277l-.725 2.022C94 275 94 275 92.852 277.21c-1.043 2.191-1.227 4.065-1.415 6.476C91.1 287.9 91.1 287.9 90 289c-.044 2-.04 4 0 6 0 4 0 4-2 7-1.235-29.939 12.084-55.34 31-78 .808-.991 1.616-1.983 2.45-3.004 16.153-19.633 53.2-58.925 81.738-45.496"/><path fill="#225B88" d="M162 152v2c-2.635 1.74-5.296 3.372-8 5-14.43 8.937-28.094 18.734-39.937 31-2.063 2-2.063 2-5.063 3v3l1.188-1.312C112 193 112 193 114.562 191.563c2.536-1.333 2.536-1.333 3.438-3.563 1.379-2.757 3.375-3.463 6-5l1.438-2.062c2.131-2.644 4.346-3.08 7.562-3.938v-2l3 1c-1.375 1.5-1.375 1.5-3 3h-2l-.77 1.863c-1.416 2.46-2.428 3.048-4.917 4.325-4.392 2.542-6.84 5.768-9.672 9.921-1.848 2.13-2.89 2.532-5.641 2.891v2c-2.375 2.625-2.375 2.625-5 5h-2l-.687 1.563C100.518 209.895 98.5 213.147 96 216h-2c.25-2.375.25-2.375 1-5 2.063-1.312 2.063-1.312 4-2v-2h2l1-3h2l2-5c-5.56 3.183-8.843 7.2-12.625 12.313l-1.695 2.224c-3.258 4.33-6.1 8.699-8.68 13.463h-2l-.75 2.484c-1.458 4.1-3.29 7.888-5.25 11.766l-1.078 2.18c-2.668 5.316-2.668 5.316-4.922 7.57 2.024-27.154 32.813-55.437 51.766-72.488C152.366 152 152.366 152 162 152"/><path fill="#ECE23B" d="M214 264q15.816-.034 31.631-.052 7.343-.007 14.687-.023 7.08-.016 14.16-.02 2.708-.003 5.415-.01 3.78-.01 7.558-.009l2.284-.01c5.15.01 5.15.01 6.265 1.124.072 2.02.084 4.042.063 6.063l-.028 3.347L296 277l1.772-.08c2.66-.103 5.318-.168 7.978-.233l2.79-.126c6.869-.125 6.869-.125 10.1 2.959.45.818.898 1.637 1.36 2.48l-1 2-1.25-1.937c-2.018-2.379-2.765-2.539-5.75-3.063a64 64 0 0 0-4.11-.098l-2.285.01-2.355.026-2.402.013q-2.925.02-5.848.049l-2-10-1 1c-11.983 1.197-24.348 1.308-36.375.75l-2.191-.08c-4.999-.305-4.999-.305-7.226-2.172-3.03-2.056-5.303-1.93-8.942-2.01l-3.926-.107-4.09-.068q-2.068-.05-4.137-.104-5.055-.124-10.113-.209l-.473 4.25-.266 2.39a557 557 0 0 0-.478 4.47c-.191 1.64-.479 3.267-.783 4.89l-2 1q.464-3.908.938-7.812l.263-2.237c.381-3.118.803-5.962 1.799-8.951"/><path fill="#FDF7D3" d="M236 330c3.99 2.797 5.737 5.773 6.75 10.5-1.01 4.713-2.752 7.726-6.75 10.5-3.174.824-5.816.752-9 0-3.336-2.058-4.826-3.74-7-7-.968-6.563-.968-6.563 1.25-9.855 4.29-4.18 8.878-5.91 14.75-4.145"/><path fill="#FDF8D7" d="M312 330c2.841 1.235 4.421 2.256 6.313 4.688 1.03 3.464 1.278 6.763.687 10.312-1.794 2.81-3.019 4.51-6 6-3.059.42-5.948.49-9 0-3-2.437-3-2.437-5-5l-1-1c-.582-4.615-.624-8.001 1.875-12 3.708-3.49 7.206-3.529 12.125-3"/><path fill="#FEF7B6" d="M339 308h2v3l3 1q.075 6.327.11 12.653.015 2.151.04 4.303c.025 2.063.036 4.126.045 6.189l.032 3.76C344 342 344 342 342 345c-2.75.441-2.75.441-6 .563-4.526-.048-4.526-.048-8 2.437l-.375 2.375c-.775 3.256-2.222 4.372-4.625 6.625l-1 3c-4.367.825-8.557 1.192-13 1.25l-3.562.078c-3.83-.365-6.204-1.268-9.438-3.328l-1-3h-3c-2.187-1.875-2.187-1.875-4-4v-2q-8.037.03-16.07.153-2.735.034-5.468.043c-2.62.009-5.237.05-7.857.097l-2.471-.012c-2.574.011-2.574.011-6.134.719-2.015 2.3-2.015 2.3-3 5-3.504 4.088-6.703 5.776-12.086 6.3-6.419.024-11.263-.146-16.914-3.3l1-3 2.313 1.5a26.1 26.1 0 0 0 18.562.438c3.128-1.94 3.563-2.51 5.202-5.516 1.568-2.258 2.364-3.258 5.027-4.04 2.623-.192 5.163-.17 7.79-.066l2.871.03c3.018.04 6.031.127 9.048.216q3.072.054 6.146.096c5.015.077 10.027.198 15.041.342l.387 1.934c.403 2.22.403 2.22 2.425 3.128L296 354l2 1.563c4.353 3.128 9.836 3.023 15 2.437 6.013-1.686 9.058-4.743 12.09-10.098 1.026-2.044 1.026-2.044 1.91-4.902h14q-.18-6.512-.372-13.025-.065-2.214-.125-4.429-.088-3.188-.187-6.374l-.11-3.872c-.164-2.62-.435-4.81-1.206-7.3"/><path fill="#FA664A" d="M245.25 33.875 248 36l1.59 1.191c3.303 2.577 5.576 5.038 7.41 8.809v2h-2l-1-3-3 3c-4.817-3.55-4.817-3.55-5.824-6.031-1.051-2.197-1.051-2.197-3.61-3.016C231.214 36.53 222.277 36.212 212 39q-2 .503-4 1v-2c8.742-3.907 16.545-4.745 26-5-5.99-2.995-14.352-1.638-20.566.27-5.607 1.904-11.201 3.937-16.434 6.73v2l-4.133 2.582C189.045 47.485 186.08 51.343 183 55l-2-1c5.911-12.561 18.566-19.144 31-24 10.962-2.916 23.44-1.785 33.25 3.875"/><path fill="#3777AC" d="m177 288 4 2c-1.75 5.75-1.75 5.75-4 8a200 200 0 0 0-2.137 5.625C173.35 307.791 171.66 311.89 170 316h-2l-.25 1.75c-.75 2.25-.75 2.25-2.625 4-2.946 3.119-3.773 6.194-5.125 10.25h-2c-1.509 2.897-2.723 5.82-3.875 8.875-2.098 5.265-4.21 9.62-8.75 13.188-2.637 2.151-3.394 3.725-4.375 6.937h-2c.497-4.873 1.85-7.725 4.688-11.687 3.87-5.59 7.151-11.302 10.312-17.313 3.405-6.347 6.898-12.594 10.703-18.71 1.341-2.368 2.344-4.745 3.297-7.29l-2-1 3-4 1 2z"/><path fill="#B5CFE4" d="M268 138c1.922.34 1.922.34 4 1 1.25 2.563 1.25 2.563 2 5h2l-.125 3.375c-.286 3.669-.286 3.669 2.125 5.625 0 3.192-.018 6.383-.035 9.574l-.02 6.03q-.008 2.07-.02 4.14c-.044 7.168-.08 14.17 1.075 21.256h-3c-1.983 3.447-2.68 6.8-3.437 10.688-1.023 5.007-2.227 9.756-4.012 14.542-.7 1.939-.7 1.939-.551 4.77l-2 1c-.772 2.272-.772 2.272-1.375 5-1.64 6.375-3.833 12.184-7.375 17.75-1.468 2.213-1.468 2.213-1.25 4.938V255l-3 2c-.733 3.066-.733 3.066-1 6l-5 1c1.71-5.717 4.237-10.981 6.75-16.375C267.072 218.537 283.666 178.118 272 146c-1.207-2.777-2.522-5.35-4-8"/><path fill="#FECDC1" d="M248 36c2.726.08 4.498.577 6.598 2.344 2.932 3.17 4.67 5.783 5.59 10.031L261 52l3 1c.819 25.314.819 25.314-6 34-1.497 4.412-1.497 4.412-2 9l-3 1c-1.493 1.727-1.493 1.727-2.875 3.813-2.397 3.339-4.82 5.709-8.125 8.187l-2 3-3.312.938c-3.904 1.124-5.574 2.556-8.688 5.062-6.308 2.854-11.87 3.575-18.75 3.813l-2.824.154c-4.572.193-7.346.2-11.426-1.967l-2.562.063C190 120 190 120 188.188 118.5L187 117l1-2 2.203.875c13.612 5.026 24.653 3.475 37.797-1.875 14.545-6.8 23.857-18.41 30.273-32.832 3.32-9.905 3.505-23.58-1.062-33.086-2.609-4.486-5.475-8.454-9.211-12.082"/><path fill="#226398" d="m237.313 127.75 2.935-.062c10.858-.058 19.529 2.031 27.752 9.312l-2 5-2-1v-2l-2.562-.375C258 138 258 138 255.188 136.973c-6.021-1.747-12.42-1.22-18.625-1.16l-3.893.001c-6.31.03-12.434.2-18.67 1.186l4-1v-2l3.438-.437c3.37-.175 3.37-.175 4.562-1.563 2-.088 4.002-.107 6.004-.098l3.682.01 3.876.025 3.89.014q4.773.018 9.548.049c-15.744-3.43-31.405-.572-46.714 3.449-3.083.743-6.138 1.178-9.286 1.551 2.186-3.279 2.5-3.44 6.07-4.352l2.47-.64 2.585-.633 2.516-.656c8.935-2.27 17.482-2.92 26.672-2.969"/><path fill="#0C4B7F" d="M180 289h29c0 7 0 7-1 10l-31 1 2-1z"/><path fill="#265B85" d="m208 196 1 4h2c-.612 6.901-2.33 13.205-4.375 19.813l-1.052 3.408C198.918 244.195 189.929 264.387 180 284q-2.096 4.186-4.187 8.375l-2.043 4.086L172 300l-2 4h-1c-.438-4.59 1.066-7.633 3.188-11.562q1.108-2.146 2.207-4.297l1.248-2.444a465 465 0 0 0 23.305-54.735 658 658 0 0 1 3.224-8.821c3.083-8.468 4.95-17.178 5.828-26.141"/><path fill="#3774A8" d="m236.875 129.813 2.895-.038c5.768-.011 10.7.571 16.23 2.225v1l-2.738-.016q-5.013-.025-10.024-.039-2.173-.008-4.345-.02a1691 1691 0 0 0-6.233-.023l-3.793-.016c-2.764-.215-2.764-.215-3.867 1.114q-3.5.061-7 0v2h-4v2c-3.552 2.13-6.927 2.5-11 3-1.67.32-3.337.647-5 1v-2c-3.476-1.159-4.076-.845-7.352.477l-2.582 1.035-2.691 1.113-2.621 1.043a112 112 0 0 0-14.955 7.392C166 152 166 152 164 152v-3c29.944-14.595 29.944-14.595 33.844-13.467 2.598.563 4.153.19 6.71-.494l2.614-.68 2.707-.734c9.196-2.436 17.466-3.806 27-3.812"/><path fill="#1F6095" d="M67 268h1l-.063 2.456q-.103 4.61-.157 9.22c-.03 1.958-.08 3.915-.132 5.873-.08 7.82.783 14.261 3.461 21.627 1.29 4.089 1.18 7.573.891 11.824l4 2v4h-2l-2-2 2 6c-7.439-6.654-12.95-19.102-14-29-.037-7.014.444-14.011 1-21l2-1-.07 1.625c-.13 5.67.275 11.19.945 16.813l.238 2.115c.444 3.506.89 5.453 2.887 8.447l-.437-1.555c-2.928-12.077-2.53-25.418.437-37.445"/><path fill="#F9DF30" d="M317 334h2v2h2l2 7h4c-.337 5.387-3.381 9.226-7 13-5.175 3.124-10.086 3.81-16 3-2.512-.802-4.639-1.794-7-3l2-1 2 1c2.333.04 4.667.043 7 0v-3l-2.187-.375c-6.887-1.53-6.887-1.53-9.188-4.25-.956-3.632-.24-6.684.375-10.375h1l.188 3.188c.985 4.622 1.925 6.14 5.812 8.812 3.156.703 5.843.697 9 0 3.23-1.813 3.23-1.813 5-5 .64-3.872.244-7.267-1-11"/><path fill="#FEF740" d="M295 288h1v21l32-1-2-4c.375-2.25.375-2.25 1-4v2l3 1c.25 7.625.25 7.625-2 11a59 59 0 0 1-7.414.512l-2.211.054c-2.333.054-4.666.088-7 .122q-2.37.05-4.742.103c-3.878.088-7.755.148-11.633.209z"/><path fill="#296AA0" d="M213 176c4.473 4.473 3.299 11.787 3.323 17.715-.08 6.418-.816 12.507-2.136 18.785l-.5 2.406c-.938 4.068-1.915 6.874-4.687 10.094-1.079 3.236-1.876 6.44-2.613 9.77-1.582 6.882-3.572 13.224-7.387 19.23l-2 1c.55-6.058 1.929-11.293 4-17l1-3h2l.188-3.437c.53-4.414 2.23-7.551 4.558-11.29 3.524-6.39 3.568-12.27 3.504-19.398l-.012-3.098c-.081-7.103-.57-13.85-2.238-20.777l2 1z"/><path fill="#3A7BAF" d="m105 198 2 1c-1.72 3.03-3.292 5.763-6 8h-2v2l-1.812 1.125c-2.647 2.268-3.148 4.483-4.293 7.695-1.45 3.53-3.58 6.51-5.77 9.618C83.435 232.81 79.988 238.197 77 244h-2l-.812 3.375C73 251 73 251 70 253c.549-5.388 2.465-9.408 4.938-14.125l1.091-2.129q1.032-2.01 2.072-4.013A340 340 0 0 0 81 227h2l.672-2.566c1.594-4.12 3.798-6.986 6.578-10.371l1.498-1.86A716 716 0 0 1 96 207l1.953-2.395c2.215-2.656 4.15-4.674 7.047-6.605"/><path fill="#C4D8E9" d="m201 330 1 2c-1.174 3.132-2.693 4.797-5.312 6.813-3.126 2.555-5.298 5.17-7.45 8.574-3.369 4.39-7.944 5.722-12.996 7.453-2.682 1.388-3.002 2.498-4.242 5.16-2.31.741-4.648 1.402-7 2q-2.528 1.454-5 3c-9.239 4.141-9.239 4.141-14.687 4.063l-2.45-.028L141 369v-1l3.871-.695c5.527-1.238 10.217-3.522 15.191-6.18l2.763-1.464c14.316-7.795 26.73-18.113 38.175-29.661"/><path fill="#F1F1F1" d="M296 1c19.45-1.134 42.981 4.537 58.832 16.059L357 19v2c-4.178-.92-7.678-2.835-11.437-4.812C330.06 8.285 313.284 5.083 296 4z"/><path fill="#235A86" d="M166 306h2c-.57 3.798-1.63 6.395-3.687 9.625-3.846 6.195-7.31 12.573-10.708 19.023-3.237 6.082-6.782 11.867-10.622 17.582-1.896 2.864-3.468 5.336-3.983 8.77h2l1-5 3-1 1-3 1 2a788 788 0 0 1-3 5c-.707 2.693-.707 2.693-1 5h-7c-.95-6.447 2.345-10.583 5.625-15.812q1.785-2.928 3.563-5.86l1.886-3.103c3.302-5.53 6.424-11.158 9.551-16.788q1.738-3.126 3.477-6.253l1.479-2.67L163 311l1.556-2.824z"/><path fill="#1F5988" d="M162 152v2c-2.635 1.74-5.296 3.372-8 5-14.43 8.937-28.094 18.734-39.937 31-2.063 2-2.063 2-5.063 3v2l-4 2c0-3.821 1.458-4.82 4.061-7.428l1.751-1.697 1.804-1.768C147.83 152 147.83 152 162 152"/><path fill="#E86A51" d="m224.563 28.875 3.94-.008c2.74.104 4.913.305 7.497 1.133v2c-1.102-.07-2.204-.14-3.34-.21-13.147-.564-23.975 2.038-35.66 8.21v2l-4.133 2.582C189.045 47.485 186.08 51.343 183 55l-2-1c5.911-12.561 18.566-19.144 31-24 4.19-1.14 8.232-1.134 12.563-1.125"/><path fill="#3B7BB1" d="M153 159v3c-1.68 1.387-1.68 1.387-3.875 2.688-.72.436-1.439.873-2.18 1.324C145 167 145 167 143 167v2l-1.875.25c-2.308.538-2.308.538-3.125 2.75-1 2-1 2-3.125 2.75L133 175v2l-2.687 1.125c-2.951 1.67-4.03 2.52-6 5.063L122 186h-3l-.312 1.813c-1.374 4.371-4.852 6.023-8.688 8.187l-2 1c.556-3.647 1.791-5.02 4.625-7.312a85 85 0 0 0 7.531-6.942c4.225-4.263 8.907-7.8 13.719-11.371l2.566-1.945c5.3-3.96 10.683-7.39 16.559-10.43"/><path fill="#3678AE" d="M68 256h1c-.384 5.789-.818 11.451-2.062 17.125C64.829 284.046 64.983 296.28 68 307l-2 1c-6.802-11.365-4.607-30.185-1.543-42.406 2.21-8.26 2.21-8.26 3.543-9.594"/><path fill="#FE795A" d="m232 31 3 2c-1.899 1.899-5.342 1.268-7.875 1.375-6.681.345-12.75 1.518-19.125 3.625v2c-2.906 1.257-4.796 2-8 2v2l-4 2c.063-2.75.063-2.75 1-6 2.416-1.854 4.233-2.833 7-4l3.086-1.355C215.396 31.31 223.047 29.84 232 31"/><path fill="#D0E0E9" d="M268 138c1.922.34 1.922.34 4 1 1.25 2.563 1.25 2.563 2 5h2l-.125 3.375c-.286 3.669-.286 3.669 2.125 5.625 0 3.192-.018 6.383-.035 9.574l-.02 6.03q-.008 2.07-.02 4.14c-.044 7.168-.08 14.17 1.075 21.256h-3l-2 3q-.04-3.562-.062-7.125l-.026-2.016c-.02-4.084.414-7.843 1.088-11.859.91-13.649-.237-25.873-7-38"/><path fill="#1F5582" d="m237.438 127.813 2.986-.038c6.174-.012 11.6.661 17.576 2.225v3l-1.827-.422c-6.188-1.345-12.095-1.998-18.423-2.016l-2.838-.009c-9.891.164-19.105 2.395-28.626 4.896-3.083.743-6.138 1.178-9.286 1.551 2.186-3.279 2.5-3.44 6.07-4.352l2.47-.64 2.585-.633 2.516-.656c8.996-2.285 17.546-2.9 26.797-2.906"/><path fill="#29689C" d="m133 175 3 1c-1.375 1.5-1.375 1.5-3 3h-2l-.77 1.863c-1.416 2.46-2.428 3.048-4.917 4.325-4.392 2.542-6.84 5.768-9.672 9.921-1.848 2.13-2.89 2.532-5.641 2.891v2c-2.375 2.625-2.375 2.625-5 5h-2l-.687 1.563C100.518 209.895 98.5 213.147 96 216h-2c.25-2.375.25-2.375 1-5 2.063-1.312 2.063-1.312 4-2v-2h2l1-3h2c1.257-2.906 2-4.796 2-8l1.738-.32c2.61-.784 4.279-1.918 6.45-3.555l2.105-1.555c1.973-1.56 1.973-1.56 2.707-4.57a791 791 0 0 1 5-3l1.438-2.062c2.131-2.644 4.346-3.08 7.562-3.938z"/><path fill="#CFE1F0" d="m118 336 1 3 6 1 1 3 2 2c.56 4.042.537 7.957 0 12-2.125 2.563-2.125 2.563-5 4l-3 1.813c-3.475 1.375-4.522 1.43-8 .187a141 141 0 0 1-6.066-3.031c-2.05-1.09-2.05-1.09-4.871-1.906L99 357c-.629-2.566-.629-2.566-1-5l2.746 1.785c7.61 5.09 7.61 5.09 16.379 6.527 2.936-.705 4.034-1.444 6.438-3.437 1.792-3.586 1.87-5.909 1.437-9.875-1.316-3.51-2.914-4.885-6.125-6.75l-2.195-1.297L115 338z"/><path fill="#315745" d="M180 289h29c0 7 0 7-1 10h-28l1-2h26v-6h-26z"/><path fill="#FEF8AF" d="M339 308h2v3l3 1q.075 6.327.11 12.653.015 2.151.04 4.303c.025 2.063.036 4.126.045 6.189l.032 3.76C344 342 344 342 342 345c-3.066.419-6.06.44-9.152.496-2.974.217-2.974.217-4.602 2.54L327 350h-2l-1 3-1-2c1.115-2.79 2.586-5.344 4-8h14q-.18-6.512-.372-13.025-.065-2.214-.125-4.429-.088-3.188-.187-6.374l-.11-3.872c-.164-2.62-.435-4.81-1.206-7.3"/><path fill="#EC6145" d="M179 55h2c-.37 3.19-.71 5.54-2.437 8.281-5.65 9.832-5.11 21.896-3.563 32.719h-2c-2.7-4.05-2.384-7.175-2.375-11.937l.005-2.585c.191-9.93 3.059-18.132 8.37-26.478"/><path fill="#FC6446" d="M178 70h2l-.254 3.55c-.522 7.86-.997 15.448.098 23.286C180 99 180 99 179.406 101.164L179 103l2 2v3h3l1 3 3 1c1.188 2.063 1.188 2.063 2 4-4.178-1.375-6.624-3.243-9.687-6.375l-2.325-2.336C174.823 103.645 174 101.895 174 97l3 1-.523-2.852c-.694-4.863-.385-9.635-.102-14.523l.133-2.77c.36-6.722.36-6.722 1.492-7.855"/><path fill="#F9DE2F" d="M214 348h3l1 3 2 2 2 2c2.069.643 2.069.643 4 1l-2-4 2-1v2h9v1l6 1v-2h3c-1 3-1 3-3.875 4.688-5.618 2.157-11.842 2.573-17.504.398-4.486-2.561-6.78-5.14-8.621-10.086"/><path fill="#226299" d="M176 150v2l-6 1v3l-1.715.332-2.222.48-2.215.458L162 158l-1 3c-1.568.955-3.147 1.895-4.766 2.762-3.635 2.014-7.091 4.307-10.586 6.554L143 172l-2.71 1.777L138 175l-2-1a141 141 0 0 1 5-5h2v-2c2.082-1.508 2.082-1.508 4.813-3.125l2.707-1.633C153 161 153 161 156 161l1-3h3l1-2a108 108 0 0 1 5.875-3.125l3.242-1.633C173 150 173 150 176 150"/><path fill="#E9D84C" d="M206 308h1c.098 6.152.098 6.152 0 8l-1 1c.006 1.48.058 2.96.125 4.438.11 8.32-1.619 16.412-3.125 24.562h10l1 2c-8.927.613-8.927.613-12.625-1.5-4.01-7.291-.079-17.449 1.625-25q.435-1.969.867-3.937 1.056-4.784 2.133-9.563"/><path fill="#F7E661" d="M247 264q10.226-.037 20.453-.055 3.481-.008 6.964-.02c3.328-.013 6.657-.018 9.985-.023l3.166-.015h2.912l2.577-.007C295 264 295 264 296 265c.072 2.02.084 4.042.063 6.063l-.028 3.347L296 277l1.772-.08c2.66-.103 5.318-.168 7.978-.233l2.79-.126c6.869-.125 6.869-.125 10.1 2.959.45.818.898 1.637 1.36 2.48l-1 2-1.25-1.937c-2.018-2.379-2.765-2.539-5.75-3.063a64 64 0 0 0-4.11-.098l-2.285.01-2.355.026-2.402.013q-2.925.02-5.848.049c-1.151-4.605-1-7.94-1-13l-47-1z"/><path fill="#FAF9C4" d="m255 260 2 1v2h40v12h19v2h-20l-1-12-47-1v-1h6z"/><path fill="#256190" d="m99 324 2.875 2.5a444 444 0 0 0 9.25 7.688l2.445 1.98c2.421 1.904 2.421 1.904 5.235 3.445L121 341v2c-3.825 1.275-5.334.527-9-1-1.875-1.437-1.875-1.437-3-3v-3l-2.25.313c-2.75-.313-2.75-.313-5-2.375-2.014-3.38-2.445-6.045-2.75-9.938"/><path fill="#F4DD40" d="M331 299c9.879 9.605 9.879 9.605 10.114 16.186l-.016 3.888-.005 2.072c-.005 2.18-.018 4.361-.03 6.541q-.008 2.22-.014 4.44c-.01 3.624-.03 7.249-.049 10.873h-14l1-2h11q.044-6.376-.043-12.75a249 249 0 0 1-.002-4.326c.062-8.536-.212-14.828-6.457-21.325C331 301 331 301 331 299"/><path fill="#FEF6A1" d="M296 288h16v1h-15v18h26l-3-5 1-2a466 466 0 0 1 2.5 3.375l1.406 1.898C326 307 326 307 326 309h-30z"/><path fill="#FEF7AC" d="M312 330c2.841 1.235 4.421 2.256 6.313 4.688 1.034 3.48.808 6.689.687 10.312l-2 1v-10h-2l-1-2h-4v-3c-3.118.646-3.118.646-4 3h-3c-1.737 3.225-2.89 6.513-4 10h2l3 6c-3.161-1.37-3.993-1.99-6-5-.74-4.593-.61-8.025 1.875-12 3.708-3.49 7.206-3.529 12.125-3"/><path fill="#135286" d="M62 278c1.616 3.232 1.25 6.816 1.375 10.375C63.831 298.38 65.393 307.016 70 316l-1 3v-2h-2v-3l-3-1c-5.562-10.184-4.63-22.869-3-34z"/><path fill="#FEFCBF" d="M316 277c3 0 3 0 5.438 2.375.845.866 1.69 1.733 2.562 2.625l2.094.89C328 284 328 284 328.723 286.024l.34 2.352c.65 3.654 1.443 5.79 3.937 8.625v2h2v2h2c1.063 1.813 1.063 1.813 2 4l-1 3c-16.922-22.396-16.922-22.396-22-31"/><path fill="#3576AB" d="m237.313 129.688 2.819-.017c5.613.058 10.481.744 15.868 2.329v1l-2.738-.016q-5.013-.025-10.024-.039-2.173-.008-4.345-.02a1691 1691 0 0 0-6.233-.023l-3.793-.016c-2.764-.215-2.764-.215-3.867 1.114a168 168 0 0 1-6.562.563l-3.63.253L212 135c1-2 1-2 3.168-2.852 7.454-1.909 14.469-2.439 22.144-2.46"/><path fill="#2B608B" d="M196 137c-1.32 2.642-2.425 2.738-5.156 3.77l-2.602 1.005-2.742 1.037c-6.197 2.345-12 4.851-17.705 8.241C166 152 166 152 164 152v-3q5.092-2.441 10.188-4.875l2.908-1.395 2.822-1.347 2.587-1.238c4.789-2.198 8.155-3.393 13.495-3.145"/><path fill="#DAD150" d="M209 289h1c1.25 6.5 1.25 6.5-1 11l-28 1v6h25v1c-4.292.058-8.583.094-12.875.125l-3.707.05-3.535.02-3.27.032C180 308 180 308 178 306c.568-5.568.568-5.568 2-7 2.073-.088 4.148-.107 6.223-.098l3.818.01 4.022.026q2.016.008 4.033.013 4.952.018 9.904.049z"/><path fill="#FDDFD7" d="M248 36c2.726.08 4.498.577 6.598 2.344 2.932 3.17 4.67 5.783 5.59 10.031L261 52l3 1q.08 4.125.125 8.25l.05 2.355c.062 7.12.062 7.12-2.175 10.395l-.113-2.71C261.139 57.541 258.333 45.774 248 36"/><path fill="#416759" d="M180 308h26c-.59 4.714-1.184 9.334-2 14h-1v-11l-23-1z"/><path fill="#C3C867" d="M183.073 282.773c1.288.01 2.576.02 3.904.032l2.076.008c2.19.011 4.381.037 6.572.062q2.226.016 4.453.027 5.46.035 10.922.098v1l-31 1 1 2 28 1v1h-30l-1-4c2-2 2-2 5.073-2.227"/><path fill="#F4DF41" d="M295 288h1v21h30v1h-30v2l9 2v1h-10z"/><path fill="#FEF235" d="M296 278q3.843-.08 7.688-.125c.72-.017 1.442-.034 2.185-.05 4.154-.039 7.448.168 11.127 2.175 1.313 2.125 1.313 2.125 2 4h-3l-1-2-2.379.07c-5.969.103-10.995-.024-16.621-2.07z"/><path fill="#2B6BA0" d="m79 239 1 3c-1.398 2.418-1.398 2.418-3.375 5.188-3.29 4.939-4.328 7.962-4.625 13.812-.612 2.017-1.26 4.026-2 6h-2a609 609 0 0 1-.125-6.312l-.07-3.551C68 254 68 254 70 251h2l1.375-3.437C75 244 75 244 77 243c1.134-2.017 1.134-2.017 2-4"/><path fill="#FEE1D6" d="M226.195 26.875c4.944-.155 9.097.78 13.805 2.125v2l-3.062-.5C226.524 29.242 216.876 29.37 207 33c-1.33.35-2.661.689-4 1 1-3 1-3 2.68-3.914 6.831-2.212 13.382-2.805 20.515-3.211"/><path fill="#CADFEE" d="M205 178c2.81 2.565 3.869 4.477 4.203 8.355.146 8.838-1.37 17.047-3.203 25.645-1.133-3.4-.723-5.535 0-9 .118-2.7.185-5.363.188-8.062l.037-2.143c.01-3.847-.309-6.467-2.225-9.795.375-2.75.375-2.75 1-5"/><path fill="#CDE2F0" d="M268 138c1.922.34 1.922.34 4 1 1.25 2.563 1.25 2.563 2 5h2l-.125 3.375c-.286 3.669-.286 3.669 2.125 5.625v3l.07 3.652.055 4.286.05 2.17c.036 3.802-.038 6.67-2.175 9.892l-.113-3.516C275.4 160.057 274.158 149.043 268 138"/><path fill="#FAE54A" d="M297 338h1l.188 3.188c.985 4.622 1.925 6.14 5.812 8.812 3.918.888 7.396.95 10.914-1.133 1.847-1.483 1.847-1.483 4.086-3.867-.322 2.975-.527 4.554-2.742 6.645-3.893 2.336-7.858 1.869-12.258 1.355-3.276-1.17-5.193-2.053-7.437-4.687-.874-3.593-.169-6.68.437-10.313"/><path fill="#1F5684" d="m208 196 1 4h2c-.61 7.63-2.796 14.702-5 22h-2c.614-8.802 2.295-17.36 4-26"/><path fill="#31638E" d="m88 275 2 2c-.277 2.34-.623 4.673-1 7-.172 2.98-.185 5.953-.187 8.938l-.038 2.302c-.013 5.242.775 9.721 2.225 14.76l-2 1c-2.102-5.887-2.386-11.567-2.656-17.793-.323-3.007-.955-4.602-2.344-7.207l1-2h2z"/><path fill="#24669A" d="m133 175 3 1c-1.375 1.5-1.375 1.5-3 3h-2l-.77 1.863c-1.416 2.46-2.428 3.048-4.917 4.325-4.395 2.548-6.891 5.791-9.77 9.921C114 197 114 197 111 198c0-3.288 2.752-4.752 5-7l1.5-2.625c1.794-2.84 3.62-3.72 6.5-5.375l1.438-2.062c2.131-2.644 4.346-3.08 7.562-3.938z"/><path fill="#EF674E" d="m251 92 2 1c-5.773 8.02-12.21 15.24-21 20h-2v-2h3v-2h3v-3l5-1 1-4h3v-2h2l1-6z"/><path fill="#C8DEEE" d="M89 302c2.34 2.127 3.807 4.062 5 7v3h2l2 6h2l.375 2.938L101 324l2 1h-3c-5.448-5.941-11-14.722-11-23"/><path fill="#F7DE31" d="M314 291h5l2 6h2l6 11h-3c-2.156-2.45-2.156-2.45-4.5-5.687l-2.344-3.2A118 118 0 0 1 314 291"/><path fill="#2D628D" d="M203 219c2 3 2 3 1.898 4.945-1.327 5.527-2.853 11.2-5.898 16.055l-3 1c2.16-7.394 4.53-14.704 7-22"/><path fill="#27679B" d="M179 290h2c-1.75 5.75-1.75 5.75-4 8a200 200 0 0 0-2.137 5.625C173.35 307.791 171.66 311.89 170 316h-2l-1 2c1.74-7.169 4.08-13.521 7.793-19.914 1.525-2.636 2.873-5.349 4.207-8.086"/><path fill="#FECFBF" d="M169 78h2l.078 2.93c.324 7.427.877 13.414 4.18 20.215L176 103l-1 2-3-2c-.187-2.625-.187-2.625 0-5h-2c-.883-4.518-1.106-8.775-1.062-13.375l.027-3.773z"/><path fill="#284E3C" d="M211 272h1c.076 3.964-.032 7.127-1 11h-28v-1l26-1v-5c1-2.312 1-2.312 2-4"/><path fill="#235E8F" d="M260 132c3.914 1.27 5.79 2.512 8 6l-2 4-2-1v-2l-2.875-.375C258 138 258 138 256 136l3-1z"/><path fill="#F7E43E" d="M320 284c4.174 3.928 7.894 8.165 11 13v2l-3 1-2-1v-3h-2l-.875-3.187c-.897-3.041-1.89-5.9-3.125-8.813"/><path fill="#FED9D2" d="m187 115 2.14.84c10.236 3.613 20.09 3.945 30.86 4.16v1c-3.416.226-6.832.428-10.25.625l-2.934.195-2.832.157-2.602.158c-2.63-.15-4.09-.898-6.382-2.135l-2.562.063C190 120 190 120 188.188 118.625 187 117 187 117 187 115"/><path fill="#BFD8E9" d="M90 277c2 2 2 2 2.012 4.129l-.325 2.433-.3 2.442C91 288 91 288 90 289c-.044 2-.04 4 0 6 0 4 0 4-2 7a1053 1053 0 0 1-.125-8.562l-.05-2.424c-.042-5.079.534-9.202 2.175-14.014"/><path fill="#28689E" d="M156 162c-5.75 4-5.75 4-8 4v3c-2.117 1.64-2.117 1.64-4.875 3.25l-2.742 1.64L138 175l-2-1a141 141 0 0 1 5-5h2v-2c2.082-1.543 2.082-1.543 4.813-3.187l2.707-1.668C153 161 153 161 156 162"/><path fill="#FDF131" d="m205 328 4 2-2 10h-3l-1 2q.214-2.376.438-4.75c.08-.882.162-1.763.246-2.672A44 44 0 0 1 205 328"/><path fill="#215B88" d="M65 314h2v3l4 1v2l5 1v4h-2l-2-2 2 6c-4.18-3.56-6.686-8.087-9-13z"/><path fill="#ADC9DD" d="M203.188 175.5 205 177l-2 1-2-1a82 82 0 0 0-4.79-.098l-2.85.01-2.985.025-3.008.014q-3.683.018-7.367.049c6.897-3.587 16.012-4.877 23.188-1.5"/><path fill="#EC644D" d="M174 100c2.755.38 3.82.807 5.75 2.875C181 105 181 105 181 108h3l1 3 3 1c1.188 2.063 1.188 2.063 2 4-4.149-1.373-6.624-3.218-9.687-6.312l-2.325-2.301c-2.003-2.405-3.01-4.434-3.988-7.387"/><path fill="#FEF032" d="M244 336h4c.125 5.75.125 5.75-1 8h-2l-.75 2.313c-1.36 2.923-2.566 3.987-5.25 5.687l-2-1c1.375-1.5 1.375-1.5 3-3h2z"/><path fill="#1F6195" d="M213 176c4.235 4.235 3.184 10.439 3.188 16.063l.037 2.76.005 2.65.013 2.414C216 202 216 202 214 205l.035-3.324.028-4.363.025-2.186c.018-3.861-.252-7.366-1.088-11.127-.117-2.677-.045-5.318 0-8"/><path fill="#F3EFC9" d="M199 334h1l.113 2.082.2 2.73.175 2.708c.596 2.885 1.091 3.824 3.512 5.48 2.502.576 2.502.576 5.188.688l2.73.199L214 348l2 5-4-1v-2l-2.082-.113-2.73-.2-2.708-.175C202 349 202 349 200.188 347.844c-1.739-2.7-1.478-4.859-1.375-8.031l.082-3.293z"/><path fill="#3879AD" d="m195 138 1 2h2v2l-11 1v2l-8 1c2.653-3.266 5.804-4.265 9.688-5.687l3.574-1.325z"/><path fill="#2D6EA4" d="M64 283h1l.148 2.71c.449 7.253 1.173 14.216 2.852 21.29l-2 1c-4.632-7.412-2.814-16.787-2-25"/><path fill="#FDFCD5" d="M316 277c3 0 3 0 5.438 2.375.845.866 1.69 1.733 2.562 2.625 2.166 1.295 2.166 1.295 4 2v7l-1.187-1.812c-1.69-2.319-1.69-2.319-4.25-3.5-3.55-2.338-4.645-4.924-6.563-8.688"/><path fill="#2F70A5" d="M211 205h2c.809 7.12-2.067 12.621-5 19-1.946-3.475-2.076-5.125-1-9h2z"/><path fill="#EC6A53" d="M179 55h2c-.518 4.456-1.67 7.214-4 11-.707 2.693-.707 2.693-1 5l-1-2h-2c3.1-10.091 3.1-10.091 6-14"/><path fill="#FDF9D5" d="m325 350 3 1-3.809 4.395c-1.4 1.712-1.4 1.712-2.191 4.605l-8 1v-2l3-1a141 141 0 0 0 5-5z"/><path fill="#C0D8E8" d="M137 206c0 3.292-.415 4.027-2.25 6.625l-1.266 1.852c-1.762 1.809-3.024 2.134-5.484 2.523.414-4.834 2.378-6.895 6-10z"/><path fill="#206196" d="M203 239c1.24 3.487.798 5.247-.75 8.563l-1.047 2.316c-1.188 2.095-2.42 3.518-4.203 5.121.857-8.571.857-8.571 3-12h2z"/><path fill="#1F5884" d="M204 172c2.375.25 2.375.25 5 1 1.438 1.813 1.438 1.813 2 4-.875 2.25-.875 2.25-2 4h-2c-2.187-2.812-2.187-2.812-4-6z"/><path fill="#D8DDEA" d="M226 128v1c-5.987 1.115-11.963 2.195-18 3l-1-2 1-2 1.898.035 2.477.028 2.46.035c9.247-.418 9.247-.418 11.165-.098"/><path fill="#FEF4A8" d="m224 332 2 1-4 9 2 1v5c-2.28-1.71-3.798-3.052-4.406-5.906-.171-3.821-.044-5.532 2.406-8.594z"/><path fill="#1E5D93" d="M195 258c1.297 3.001.934 4.202-.11 7.383q-.802 1.879-1.64 3.742l-.805 1.918c-1.48 3.386-2.298 4.86-5.445 6.957 1.694-7.37 3.988-13.577 8-20"/><path fill="#FC6344" d="m198 44 2 1c-1.375 1.5-1.375 1.5-3 3h-2l-1 3h-2l-.875 2.438C190 56 190 56 188 57a113 113 0 0 0-3 5l-1-2c.777-1.727.777-1.727 1.938-3.625L188 53h2l.625-1.687c1.925-3.238 4.414-4.995 7.375-7.313"/><path fill="#25659C" d="M68 306c2 1.438 2 1.438 4 4 .354 3.028.233 5.965 0 9-2.872-2.727-4.554-5.27-6-9 .813-2.375.813-2.375 2-4"/><path fill="#D4EBF4" d="m118 336 1 3 6 1 1 3 2 2c.125 2.625.125 2.625 0 5-1.732-1.575-2.901-2.774-3.844-4.937-1.41-2.516-2.805-3.375-5.281-4.813l-2.195-1.297L115 338z"/><path fill="#FED7CF" d="M248 36c2.735.08 4.51.596 6.633 2.344 4.14 4.4 5.157 7.659 5.367 13.656-2.689-3.513-5.097-7.167-7.5-10.879-1.367-1.933-2.772-3.511-4.5-5.121"/><path fill="#2D6EA3" d="M154 336c1.171 2.85 1.06 3.857-.145 6.762l-1.667 2.925-1.645 2.95C149 351 149 351 147 352c-.201-3.625.142-5.865 2-9h2c1.206-2.332 2.165-4.496 3-7"/><path fill="#FEF7B1" d="M297 289h16l4 7h-2l-4-4c-3.15-1.05-5.388-1.101-8.687-1.062l-3.012.027L297 291z"/><path fill="#226198" d="M214 137c-3.453 3.176-6.412 3.517-11 4-1.67.32-3.337.647-5 1l1-3c5.137-1.992 9.525-2.192 15-2"/><path fill="#F5E137" d="M180 285h3v2h25v1h-27z"/><path fill="#19567D" d="M178 296c1.238 3.576.75 6.337 0 10l-3 1c-1.667 1.5-1.667 1.5-3 3l.813-2c1.223-3.09 2.37-6.204 3.503-9.328C177 297 177 297 178 296"/><path fill="#FEF8C5" d="M288 349c3.283 1.49 5.93 3.386 8.75 5.625l2.422 1.914L301 358l-4 1-2-4h-3c-2.187-1.875-2.187-1.875-4-4z"/><path fill="#215C89" d="m88 275 2 2c-.137 2.531-.137 2.531-.687 5.5l-.512 2.969C88 288 88 288 85 290c-1.125-3.75-1.125-3.75 0-6h2z"/><path fill="#26669B" d="M194 143c-8.077 5.74-8.077 5.74-14 5l2-1v-2h5v-2c3.01-.934 3.867-1.044 7 0"/><path fill="#C1D6E2" d="m253 253 3 2-3 1zm-3 3 3 1-1 6-5 1c1.875-5.75 1.875-5.75 3-8"/><path fill="#22659C" d="m146 352 1 2a788 788 0 0 1-3 5c-.707 2.693-.707 2.693-1 5l-4-1v-2h2l1-5 3-1z"/><path fill="#1E5785" d="m174 291 2 2-6 11h-1c-.839-5.367 2.08-8.796 5-13"/><path fill="#EA6446" d="M211 33c-2.106 2.106-3.737 2.928-6.437 4.125l-2.372 1.07C200 39 200 39 197 39c4.539-4.863 7.287-6.305 14-6"/><path fill="#296A9D" d="m91 218 2 1q-1.65 2.41-3.312 4.813l-1.864 2.707c-1.501 2.041-2.972 3.765-4.824 5.48.671-4.194 2.856-7.403 5-11h2z"/><path fill="#B0CDE3" d="M273 188h1c.202 6.36-.372 11.852-2 18h-2z"/><path fill="#185989" d="M143 192h3l1 4-4 3-3-2c1.875-3.875 1.875-3.875 3-5"/><path fill="#185283" d="m111 188 3 1c-1.375 2-1.375 2-3 4h-2v2l-4 2c0-3 0-3 1.313-4.605l1.687-1.583 1.688-1.605z"/><path fill="#1F5785" d="M107 240c-1.335 3.594-2.96 6.755-5 10l-2-1c.469-4.217 2.054-9 7-9"/><path fill="#FEE2D9" d="M170 92c2.805 1.402 3.044 3.06 4.188 5.938l1.105 2.714C176 103 176 103 175 105l-3-2c-.187-2.625-.187-2.625 0-5h-2c-1-3-1-3 0-6"/><path fill="#3070A5" d="M112 193h2l-1 3h-2l-1 4-4-1v-3l1.875-.375c2.316-.497 2.316-.497 4.125-2.625"/><path fill="#B3CAD1" d="M201 330c1 2 1 2 .375 3.938-1.754 2.63-3.538 3.715-6.375 5.062l-2-1z"/><path fill="#205983" d="M89 213h2c-1.78 4.044-4.395 7.46-7 11l-1-3c1.145-2.043 1.145-2.043 2.813-4.187l1.644-2.168z"/><path fill="#FD7355" d="m185 56 1 2c-.996 2.164-.996 2.164-2.437 4.625l-1.434 2.477L181 67l-2-1 1-3-2-1 1.938-.812C182.33 60.113 182.33 60.113 183 57z"/><path fill="#FEF7B1" d="m239 335 3 2c.313 3.5.313 3.5 0 7l-2 2c-1.176-3.674-1.074-7.17-1-11"/><path fill="#F6DA35" d="M225 329h14l1 3-1.715-.496c-2.367-.522-4.428-.603-6.847-.567l-2.317.028L227 331h-3z"/><path fill="#1D4E5D" d="M211 272h1c.25 6.625.25 6.625-2 10-3.125.188-3.125.188-6 0v-1h5l-.125-2.25c.129-2.838.696-4.338 2.125-6.75"/><path fill="#3172A6" d="M82 232c0 3.444-.796 4.748-2.5 7.688l-1.406 2.449L77 244c-1.61-3.218-.838-5.589 0-9 2.563-1.937 2.563-1.937 5-3"/><path fill="#C8DBEB" d="m263 227 2 3c-.68 2.48-.68 2.48-1.875 5.188l-1.18 2.73L261 240c-1.059-3.177-.968-3.973-.125-7.062l.555-2.098C262 229 262 229 263 227"/><path fill="#285F8A" d="m208 196 1 4h2l-1 8-1-2h-2z"/><path fill="#D6E9F5" d="m110 185 4 1-8 8-1-3h2v-2h2z"/><path fill="#ADC7DE" d="m170 180 2 1c-2.238 3.357-3.219 3.92-7 5-2.164-.453-2.164-.453-4-1a432 432 0 0 1 4.375-2.562l2.46-1.442z"/><path fill="#E8F5FC" d="m164 144 8 1c-2.622 2.154-4.644 3.4-8 4z"/><path fill="#2B638F" d="m96 204 2 2-6 7-3-1z"/><path fill="#AECAE0" d="M142 199c.688 1.813.688 1.813 1 4-1.645 2.468-2.803 2.95-5.687 3.688L135 207l2.938-3.437 1.652-1.934A50 50 0 0 1 142 199"/><path fill="#D6EBF9" d="M258 129c2.25-.312 2.25-.312 5 0 2.313 2.5 2.313 2.5 4 5l-2 1c-2.475-1.114-4.679-2.582-7-4z"/><path fill="#F6DD48" d="M214 348h3l1 3 2 2a249 249 0 0 1 3 4c-4.873-1.353-6.524-3.69-9-8z"/><path fill="#3A6579" d="m178 281 2 3-4 8-2-1z"/><path fill="#245A86" d="M264 218h2l-3 11h-2l-1-4 2-1c.727-1.979 1.398-3.98 2-6"/><path fill="#B7CEE6" d="M275 176h3l-1 8h-2l-1 2z"/><path fill="#AFCCE0" d="M188 342v3l-1.937.75c-2.25 1.066-2.25 1.066-2.813 3.375L183 351l-4-2z"/><path fill="#205986" d="m193.25 136.75 2.75.25-1 2c-2.066.633-2.066.633-4.562 1.125l-2.504.508L186 141c2.41-2.967 3.347-3.95 7.25-4.25"/><path fill="#1E5680" d="M158 362c-3.125 2.645-6.088 3.844-10 5v-2c6.625-4.125 6.625-4.125 10-3"/><path fill="#C7E0EA" d="M126 349c2 2 2 2 2.375 4.438C128 356 128 356 126 357.813L124 359l-2-1 1.438-1.687c1.686-2.496 2.152-4.358 2.562-7.313"/><path fill="#225168" d="M202 323c1 3 1 3 .188 5.625C201 331 201 331 199 332v-2l-2-1 3-2c1.192-2.05 1.192-2.05 2-4"/><path fill="#3E82B6" d="m167 310 1 3-2 2c-.648 2.57-.648 2.57-1 5l-3 1c.671-4.194 2.856-7.403 5-11"/><path fill="#DBE87E" d="M182.563 282.938 185 283l-2 2h-3l3 4-5-1c1.124-4.979 1.124-4.979 4.563-5.062"/><path fill="#216197" d="M71 257c1.467 3.815.433 6.29-1 10h-2l1-8h2z"/><path fill="#1D5682" d="m254 244 2 1-3 7-3-1c.602-2.02 1.273-4.021 2-6z"/><path fill="#D6E7F2" d="M197 132h10v1l-12 3v-2h2z"/><path fill="#F9E22E" d="m245 344 3 3-2 5-3-2c.506-2.169 1-4 2-6"/><path fill="#C8DFF1" d="m84 341 8 6-4 1-1-2-3-1z"/><path fill="#D3E7F3" d="m172 288 3 1-4 9h-1c-.22-3.856.396-6.492 2-10"/><path fill="#FDF7CA" d="m303.625 289.938 2.477.027L308 290v1h-8v3l-3 1v-4c2.405-1.203 3.95-1.1 6.625-1.062"/><path fill="#2D71A6" d="M66 268h1l-1 11-3-4c.835-2.504 1.794-4.668 3-7"/><path fill="#1B5E93" d="M204 172c2.375.25 2.375.25 5 1 1.313 2.063 1.313 2.063 2 4l-2 2-1-3c-2-1.209-2-1.209-4-2z"/><path fill="#FEFAD8" d="m247 352 2 1-6 6-3-1z"/><path fill="#427EA7" d="M185 273c1.392 4.176-.177 6.135-2 10h-2q.714-2.22 1.438-4.437l.808-2.497C184 274 184 274 185 273"/><path fill="#154F7C" d="M205 214h2l-1 8h-2z"/><path fill="#FEECE9" d="m185 44 3 1-6 7-1-4c1.938-2.25 1.938-2.25 4-4"/><path fill="#144C74" d="M137 363h3l1 4h5v1c-5.5.367-5.5.367-7.875-1.375C137 365 137 365 137 363"/><path fill="#1E5581" d="M64 304c1.62 2.572 2.044 3.677 1.625 6.75L65 313c-2.36-2.36-2.491-3.779-3-7h2z"/><path fill="#B0CBDE" d="M111 234c.688 1.75.688 1.75 1 4-1.312 2.25-1.312 2.25-3 4h-2c1.125-2.972 2.223-5.334 4-8"/><path fill="#3C7CB2" d="m172 148 3 1c-1.187 1.5-1.187 1.5-3 3-2.687.188-2.687.188-5 0 1.634-1.708 2.87-2.935 5-4"/><path fill="#F3ECF1" d="M232 124h7l-2 3c-2.625.188-2.625.188-5 0z"/><path fill="#FEDDD6" d="m240 31 8 1-1 4-7-4z"/></svg>