<svg width="1627" height="384" viewBox="0 0 1627 384" fill="none" xmlns="http://www.w3.org/2000/svg">
<g clip-path="url(#clip0_2001_2)">
<path d="M65.92 343.884C68.77 338.924 67.09 332.584 62.14 329.714C47.83 321.404 22.74 301.774 30.59 269.284C41.57 223.824 98.43 159.814 139.64 163.494C174.65 166.624 111.06 294.774 78.4 344.764C74.28 351.074 80.71 358.954 87.69 356.124C109.67 347.224 143.47 326.974 171.21 281.754C216.44 208.044 232.14 130.774 197.43 119.514C161 107.704 81.85 137.944 34.61 196.904C-10.69 253.454 -15.32 311.314 51.97 347.874C56.92 350.564 63.11 348.754 65.91 343.874L65.92 343.884Z" fill="#07487E"/>
<path d="M185.287 92.1502C204.696 72.7411 207.668 44.2455 191.926 28.5035C176.184 12.7615 147.689 15.7342 128.28 35.1432C108.871 54.5523 105.898 83.0479 121.64 98.7899C137.382 114.532 165.878 111.559 185.287 92.1502Z" fill="#F64F31"/>
<path d="M309.87 101.114H271.4V312.014H309.87V101.114Z" fill="#07487E"/>
<path d="M592.39 192.964V159.474H548.95V121.004H515.46V159.474H488.1V192.964H515.46V265.084C515.46 290.994 536.47 312.004 562.38 312.004H588.41V278.514H561.88C554.74 278.514 548.95 272.724 548.95 265.584V192.964H592.39Z" fill="#07487E"/>
<path d="M885.52 159.474V175.944C872.53 165.604 856.06 159.474 838.19 159.474C796.06 159.474 761.93 193.604 761.93 235.734C761.93 277.864 796.06 311.994 838.19 311.994C856.06 311.994 872.53 305.864 885.52 295.524V303.214C885.52 328.564 864.95 349.134 839.6 349.134H835.13C817.73 349.134 802.61 339.474 794.82 325.184L774.46 354.534C788.23 370.844 808.54 381.494 831.35 382.534C832.54 382.584 833.74 382.634 834.99 382.634H839.77C841.02 382.634 842.26 382.584 843.46 382.534C882.68 380.764 914.42 350.534 918.58 311.984C918.89 309.174 919.05 306.274 919.05 303.364V159.464H885.54L885.52 159.474ZM842.14 282.704C818.19 282.704 798.76 261.664 798.76 235.744C798.76 209.824 818.19 188.784 842.14 188.784C866.09 188.784 885.52 209.824 885.52 235.744C885.52 261.664 866.09 282.704 842.14 282.704Z" fill="#07487E"/>
<path d="M749.77 244.674C750.19 241.764 750.34 238.754 750.34 235.734C750.34 229.814 749.66 223.994 748.37 218.484C740.58 184.664 710.29 159.464 674.08 159.464C631.95 159.464 597.82 193.594 597.82 235.724C597.82 277.854 631.95 311.984 674.08 311.984H675.17C675.34 311.984 675.51 311.954 675.69 311.944C715.89 311.754 736.97 290.544 736.97 290.544L733.15 283.924L722.6 265.584C722.6 265.584 708.52 281.844 676.52 282.624C675.74 282.674 674.91 282.674 674.08 282.674C651.22 282.674 632.16 266.314 627.95 244.644H749.77V244.674ZM630.39 218.494C637.25 201.094 654.24 188.774 674.08 188.774C693.92 188.774 710.91 201.084 717.77 218.494H630.39Z" fill="#07487E"/>
<path d="M984.34 183.014V159.474H950.85V312.014H984.34V237.734C984.34 207.894 1004.24 190.644 1036.4 190.644V159.474C1015.88 159.474 996.59 167.214 984.34 183.014Z" fill="#07487E"/>
<path d="M1471.21 159.494H1509.11C1508.36 161.914 1507.72 164.214 1506.93 166.474C1500.56 184.754 1494.15 203.034 1487.76 221.304C1481.26 239.894 1474.79 258.504 1468.26 277.084C1462.47 293.564 1456.78 310.084 1450.74 326.484L1433.44 376.784H1392.58L1415.65 313.254C1415.95 311.814 1415.11 310.024 1414.48 308.534C1408.53 294.494 1402.47 280.494 1396.52 266.454C1384.06 237.034 1371.65 207.594 1359.22 178.154C1356.97 172.824 1354.73 167.484 1352.51 162.144C1352.18 161.354 1351.97 160.524 1351.62 159.474H1395.23C1401.82 177.404 1408.43 195.364 1415.01 213.324L1435.7 261.434L1471.19 159.494H1471.21Z" fill="#F64F31"/>
<path d="M1364.63 337.554C1365.9 338.314 1366.89 338.934 1367.91 339.524Z" fill="#F64F31"/>
<path d="M376.56 312.004H339.6C338.86 309.344 338.74 166.964 339.48 163.194H373.23V184.264C373.44 184.324 373.64 184.394 373.85 184.454C374.24 184.014 374.69 183.614 375.02 183.134C384.3 169.634 397.4 162.504 413.41 160.204C422.62 158.884 431.69 159.284 440.67 161.964C457.73 167.044 468.55 178.404 474.34 194.874C477.07 202.654 478.23 210.704 478.22 218.944C478.18 248.544 478.21 278.134 478.21 307.734C478.21 309.034 478.21 310.324 478.21 311.874H440.85C440.79 310.924 440.67 309.964 440.67 309.004C440.69 283.054 440.71 257.094 440.74 231.144C440.74 225.724 440.55 220.314 439.05 215.054C435.96 204.224 429.41 196.744 418.03 194.404C412.01 193.174 405.91 193.434 399.95 195.114C391.28 197.554 385.55 203.474 381.36 211.084C378.09 217.014 376.68 223.464 376.66 230.184C376.6 255.914 376.6 281.644 376.58 307.374C376.58 308.784 376.58 310.194 376.58 311.994L376.56 312.004Z" fill="#07487E"/>
<path d="M1200.94 290.194C1206.93 279.994 1212.67 270.244 1218.5 260.314C1219.36 260.824 1220.05 261.174 1220.66 261.614C1232.39 270.044 1245.4 275.624 1259.64 277.924C1268.24 279.314 1277 279.664 1285.57 277.164C1289.91 275.894 1293.84 273.844 1297.31 270.904C1307.78 262.054 1308.48 243.034 1298.36 233.664C1294.18 229.784 1289.5 226.724 1284.29 224.564C1276.15 221.174 1267.89 218.084 1259.68 214.864C1251.68 211.724 1243.71 208.534 1236.38 203.934C1216.05 191.174 1208.55 172.514 1211.36 149.334C1214.39 124.334 1233.47 104.954 1259.28 99.494C1269.84 97.264 1280.46 97.464 1291.11 98.784C1306.56 100.704 1321.05 105.444 1334.4 113.494C1335.77 114.314 1337.09 115.214 1338.76 116.274C1333.82 126.224 1328.6 135.914 1323.08 145.714C1321.62 144.834 1320.38 144.064 1319.12 143.314C1308.75 137.174 1297.68 132.844 1285.68 131.404C1277.24 130.394 1268.96 131.284 1261.43 135.804C1253.12 140.794 1248.73 149.894 1250.16 159.454C1250.77 163.534 1252.64 167.014 1255.51 169.994C1259.4 174.024 1264.12 176.874 1269.18 179.064C1278.01 182.874 1286.97 186.394 1295.87 190.064C1304.36 193.564 1312.7 197.344 1320.3 202.574C1328.55 208.254 1335.75 215.054 1339.82 224.294C1349.27 245.724 1348.56 266.634 1334.68 286.104C1327.05 296.804 1316.18 303.454 1303.79 307.454C1290.33 311.794 1276.57 313.264 1262.39 311.754C1246.85 310.094 1231.93 306.414 1217.74 299.924C1213.38 297.924 1209.22 295.454 1205.02 293.114C1203.65 292.344 1202.44 291.284 1200.92 290.194H1200.94Z" fill="#F64F31"/>
<path d="M1180.73 307.964H1142.58C1142.08 302.014 1142.62 296.034 1142.27 289.364C1140.95 290.744 1140.13 291.534 1139.38 292.384C1127.7 305.794 1112.78 311.884 1095.17 312.314C1084.72 312.564 1074.75 311.034 1065.41 306.164C1040.61 293.244 1036.45 265.084 1046.5 246.194C1052.16 235.544 1061.34 229.064 1072.56 225.184C1082.39 221.784 1092.61 221.094 1102.88 220.964C1114.45 220.824 1126.02 220.934 1137.59 220.924C1139 220.924 1140.41 220.924 1141.72 220.924C1144.92 209.284 1139.27 196.694 1128.87 191.774C1123.3 189.134 1117.34 188.004 1111.23 187.774C1095.93 187.194 1082.15 191.924 1069.36 199.954C1067.35 201.214 1065.36 202.494 1063.02 203.974C1058.58 195.584 1054.27 187.414 1049.86 179.074C1050.75 178.394 1051.45 177.794 1052.21 177.294C1062.44 170.524 1073.49 165.484 1085.42 162.694C1098.13 159.724 1111 158.624 1124.09 160.184C1131.35 161.054 1138.47 162.274 1145.36 164.664C1165.11 171.514 1176.65 185.244 1179.62 205.934C1180.29 210.624 1180.71 215.404 1180.72 220.144C1180.81 248.104 1180.76 276.064 1180.75 304.024C1180.75 305.194 1180.75 306.354 1180.75 307.964H1180.73ZM1142.11 244.894C1140.57 244.894 1139.28 244.894 1137.99 244.894C1127.02 244.894 1116.04 245.014 1105.07 244.844C1100.34 244.764 1095.82 245.614 1091.34 246.864C1086.74 248.144 1082.74 250.504 1080.22 254.714C1073.81 265.394 1079.73 279.664 1091.86 282.434C1095.41 283.244 1099.17 283.244 1102.84 283.424C1111.35 283.854 1119.12 281.334 1126.21 276.854C1137.72 269.584 1143.87 259.454 1142.1 244.904L1142.11 244.894Z" fill="#07487E"/>
<path d="M1621.35 172.474C1616.98 180.834 1612.7 189.034 1608.3 197.474C1607.33 196.944 1606.49 196.594 1605.76 196.084C1600.43 192.354 1594.65 189.454 1588.29 188.164C1580.18 186.514 1571.96 185.894 1564.03 189.214C1559.92 190.934 1556.68 193.644 1555.43 198.164C1554.15 202.804 1555.04 207.084 1558.6 210.264C1561.13 212.524 1564.11 214.524 1567.22 215.844C1573.24 218.384 1579.49 220.414 1585.68 222.554C1593.8 225.364 1601.82 228.334 1609.11 233.014C1623.31 242.144 1628.42 255.414 1626.59 271.644C1624.78 287.764 1615.46 298.544 1601.24 305.474C1590.86 310.524 1579.79 312.394 1568.3 312.364C1551.63 312.314 1535.92 308.674 1521.39 300.404C1519.14 299.124 1517.03 297.624 1514.6 296.054C1519.6 287.694 1524.4 279.674 1529.35 271.394C1531.04 272.454 1532.44 273.334 1533.83 274.214C1544.87 281.204 1556.86 284.934 1570 284.894C1574.24 284.884 1578.33 284.184 1582.21 282.574C1593.83 277.774 1595.6 264.494 1585.67 256.824C1581.84 253.874 1577.38 252.174 1572.88 250.564C1564.69 247.644 1556.4 244.984 1548.33 241.784C1544.05 240.084 1539.9 237.814 1536.1 235.204C1526.53 228.614 1521.81 219.154 1521.12 207.694C1520.08 190.484 1527.44 177.564 1541.84 168.514C1549.4 163.764 1557.76 161.254 1566.68 160.144C1581.22 158.344 1595.19 160.224 1608.74 165.514C1613.15 167.234 1617.35 169.474 1621.34 172.474H1621.35Z" fill="#F64F31"/>
</g>
<defs>
<clipPath id="clip0_2001_2">
<rect width="1627" height="383.524" fill="white"/>
</clipPath>
</defs>
</svg>
